<?xml version="1.0" encoding="UTF-8"?>
<svg id="Layer_1" data-name="Layer 1" xmlns="http://www.w3.org/2000/svg" width="1.76in" height="1.32in" viewBox="0 0 126.6 95.1">
  <defs>
    <style>
      .cls-1 {
        stroke-dasharray: 1.98 .66;
      }

      .cls-1, .cls-2, .cls-3, .cls-4, .cls-5, .cls-6, .cls-7, .cls-8, .cls-9, .cls-10, .cls-11 {
        fill: none;
      }

      .cls-1, .cls-2, .cls-4, .cls-8, .cls-10, .cls-11 {
        stroke: #d67828;
        stroke-linejoin: round;
        stroke-width: 1.5px;
      }

      .cls-2 {
        stroke-dasharray: 1.43 .48;
      }

      .cls-12 {
        fill: #828282;
      }

      .cls-13 {
        fill: #010101;
      }

      .cls-14 {
        font-family: ArialMT, Arial;
        font-size: 6.5px;
      }

      .cls-14, .cls-15, .cls-16, .cls-17 {
        fill: #231f20;
      }

      .cls-14, .cls-18, .cls-19, .cls-20, .cls-21, .cls-22, .cls-23 {
        isolation: isolate;
      }

      .cls-24 {
        fill: #e5e5e4;
      }

      .cls-3 {
        stroke-dasharray: .53 .53;
      }

      .cls-3, .cls-16, .cls-5, .cls-6, .cls-25, .cls-7, .cls-9, .cls-17 {
        stroke-miterlimit: 10;
      }

      .cls-3, .cls-16, .cls-5, .cls-6, .cls-7 {
        stroke-width: .5px;
      }

      .cls-3, .cls-5, .cls-6, .cls-7, .cls-17 {
        stroke: #231f20;
      }

      .cls-16 {
        stroke: #fff;
      }

      .cls-4 {
        stroke-dasharray: 1.54 .51;
      }

      .cls-5 {
        stroke-dasharray: .63 .63;
      }

      .cls-6 {
        stroke-dasharray: .51 .51;
      }

      .cls-25 {
        fill: #020202;
        stroke: #020202;
        stroke-width: .51px;
      }

      .cls-19 {
        fill: #02577c;
      }

      .cls-19, .cls-20, .cls-21 {
        font-size: 7px;
      }

      .cls-19, .cls-20, .cls-21, .cls-22, .cls-23 {
        font-family: Arial-BoldMT, Arial;
        font-weight: 700;
      }

      .cls-8 {
        stroke-dasharray: 1.41 .47;
      }

      .cls-9 {
        stroke: #000;
        stroke-width: .6px;
      }

      .cls-20 {
        fill: #6a5e26;
      }

      .cls-21 {
        fill: #18793d;
      }

      .cls-22 {
        font-size: 2px;
      }

      .cls-22, .cls-23 {
        fill: #fff;
      }

      .cls-26 {
        fill: #b5b3b4;
      }

      .cls-11 {
        stroke-dasharray: 1.51 .5;
      }

      .cls-17 {
        stroke-width: 2px;
      }

      .cls-23 {
        font-size: 2.08px;
      }
    </style>
  </defs>
  <polygon class="cls-9" points="126.3 94.8 .3 94.8 .3 47.55 .3 .3 126.3 .3 126.3 94.8"/>
  <line class="cls-9" x1=".3" y1="47.55" x2="42.3" y2="47.55"/>
  <line class="cls-9" x1="42.3" y1=".3" x2="42.3" y2="94.8"/>
  <g class="cls-18">
    <g class="cls-18">
      <g class="cls-18">
        <text class="cls-19" transform="translate(12.43 7.14)"><tspan x="0" y="0">PI+VC</tspan></text>
      </g>
    </g>
  </g>
  <g class="cls-18">
    <g class="cls-18">
      <text class="cls-21" transform="translate(17.98 54.22)"><tspan x="0" y="0">PI</tspan></text>
    </g>
  </g>
  <g class="cls-18">
    <g class="cls-18">
      <g class="cls-18">
        <text class="cls-20" transform="translate(79.42 7.14)"><tspan x="0" y="0">VC</tspan></text>
      </g>
    </g>
  </g>
  <g class="cls-18">
    <g class="cls-18">
      <g class="cls-18">
        <text class="cls-14" transform="translate(62.07 7.14)"><tspan x="0" y="0">0째</tspan></text>
      </g>
    </g>
  </g>
  <g class="cls-18">
    <g class="cls-18">
      <g class="cls-18">
        <text class="cls-14" transform="translate(98.47 7.14)"><tspan x="0" y="0">+90째</tspan></text>
      </g>
    </g>
  </g>
  <g class="cls-18">
    <g class="cls-18">
      <g class="cls-18">
        <text class="cls-14" transform="translate(57.29 54.33)"><tspan x="0" y="0">-90째</tspan></text>
      </g>
    </g>
  </g>
  <g class="cls-18">
    <g class="cls-18">
      <g class="cls-18">
        <text class="cls-14" transform="translate(96.66 54.33)"><tspan x="0" y="0">+180째</tspan></text>
      </g>
    </g>
  </g>
  <g>
    <g>
      <polygon class="cls-17" points="60.16 10.96 66.53 10.96 67.43 8.74 59.27 8.74 60.16 10.96"/>
      <polygon class="cls-16" points="63.35 9.16 60.8 10.54 65.89 10.54 63.35 9.16"/>
    </g>
    <g>
      <rect class="cls-24" x="63.88" y="38.46" width="4.53" height=".57" transform="translate(27.4 104.89) rotate(-90)"/>
      <rect class="cls-24" x="58.15" y="38.47" width="4.53" height=".57" transform="translate(21.67 99.17) rotate(-90)"/>
      <rect class="cls-24" x="62.98" y="27.53" width=".6" height="4.29" transform="translate(33.6 92.96) rotate(-90)"/>
      <rect class="cls-24" x="74.43" y="21.5" width=".6" height="4.29" transform="translate(51.08 98.38) rotate(-90)"/>
      <rect class="cls-24" x="74.43" y="27.53" width=".6" height="4.29" transform="translate(45.05 104.41) rotate(-90)"/>
      <rect class="cls-24" x="69.6" y="26.38" width="4.53" height=".57" transform="translate(45.2 98.53) rotate(-90)"/>
      <rect class="cls-24" x="63.88" y="26.38" width="4.53" height=".57" transform="translate(39.48 92.81) rotate(-90)"/>
      <rect class="cls-24" x="58.15" y="14.3" width="4.53" height=".57" transform="translate(45.83 75) rotate(-90)"/>
      <rect class="cls-24" x="63.88" y="14.29" width="4.53" height=".57" transform="translate(51.57 80.72) rotate(-90)"/>
      <rect class="cls-24" x="62.99" y="15.45" width=".6" height="4.29" transform="translate(45.69 80.89) rotate(-90)"/>
      <rect class="cls-24" x="62.98" y="21.5" width=".6" height="4.29" transform="translate(39.63 86.93) rotate(-90)"/>
      <rect class="cls-24" x="51.54" y="27.53" width=".6" height="4.29" transform="translate(22.16 81.52) rotate(-90)"/>
      <rect class="cls-24" x="51.54" y="21.5" width=".6" height="4.29" transform="translate(28.19 75.49) rotate(-90)"/>
      <rect class="cls-24" x="52.43" y="26.38" width="4.53" height=".57" transform="translate(28.03 81.36) rotate(-90)"/>
      <rect class="cls-24" x="58.16" y="26.38" width="4.53" height=".57" transform="translate(33.76 87.09) rotate(-90)"/>
      <rect class="cls-24" x="62.98" y="33.58" width=".6" height="4.29" transform="translate(27.55 99.01) rotate(-90)"/>
      <rect class="cls-26" x="67.2" y="36.18" width="3.62" height="5.15" transform="translate(30.25 107.76) rotate(-90)"/>
      <rect class="cls-26" x="64.33" y="38.47" width="3.62" height=".57" transform="translate(27.39 104.9) rotate(-90)"/>
      <rect class="cls-26" x="55.75" y="36.17" width="3.62" height="5.15" transform="translate(18.82 96.31) rotate(-90)"/>
      <rect class="cls-26" x="58.61" y="38.46" width="3.62" height=".57" transform="translate(21.67 99.16) rotate(-90)"/>
      <rect class="cls-26" x="60.57" y="30.99" width="5.44" height="3.43" transform="translate(30.58 96) rotate(-90)"/>
      <rect class="cls-26" x="62.98" y="27.97" width=".6" height="3.43" transform="translate(33.6 92.96) rotate(-90)"/>
      <rect class="cls-26" x="70.06" y="38.47" width="3.62" height=".57" transform="translate(33.12 110.62) rotate(-90)"/>
      <rect class="cls-26" x="52.89" y="38.47" width="3.62" height=".57" transform="translate(15.95 93.45) rotate(-90)"/>
      <rect class="cls-26" x="72.01" y="18.91" width="5.44" height="3.43" transform="translate(54.1 95.36) rotate(-90)"/>
      <rect class="cls-26" x="74.43" y="21.93" width=".6" height="3.43" transform="translate(51.08 98.38) rotate(-90)"/>
      <rect class="cls-26" x="72.01" y="30.99" width="5.44" height="3.43" transform="translate(42.02 107.43) rotate(-90)"/>
      <rect class="cls-26" x="74.43" y="27.97" width=".6" height="3.43" transform="translate(45.05 104.41) rotate(-90)"/>
      <rect class="cls-26" x="67.2" y="24.09" width="3.62" height="5.15" transform="translate(42.34 95.67) rotate(-90)"/>
      <rect class="cls-26" x="70.06" y="26.38" width="3.62" height=".57" transform="translate(45.2 98.53) rotate(-90)"/>
      <rect class="cls-26" x="64.33" y="26.38" width="3.62" height=".57" transform="translate(39.48 92.81) rotate(-90)"/>
      <rect class="cls-26" x="74.43" y="15.88" width=".6" height="3.43" transform="translate(57.13 92.33) rotate(-90)"/>
      <rect class="cls-26" x="74.43" y="34.01" width=".6" height="3.43" transform="translate(39 110.46) rotate(-90)"/>
      <rect class="cls-26" x="55.75" y="12" width="3.62" height="5.15" transform="translate(42.99 72.14) rotate(-90)"/>
      <rect class="cls-26" x="58.61" y="14.29" width="3.62" height=".57" transform="translate(45.84 75) rotate(-90)"/>
      <rect class="cls-26" x="67.2" y="12.01" width="3.62" height="5.15" transform="translate(54.42 83.59) rotate(-90)"/>
      <rect class="cls-26" x="64.33" y="14.3" width="3.62" height=".57" transform="translate(51.56 80.73) rotate(-90)"/>
      <rect class="cls-26" x="60.56" y="18.91" width="5.44" height="3.43" transform="translate(42.66 83.9) rotate(-90)"/>
      <rect class="cls-26" x="62.98" y="15.88" width=".6" height="3.43" transform="translate(45.68 80.88) rotate(-90)"/>
      <rect class="cls-26" x="62.98" y="21.93" width=".6" height="3.43" transform="translate(39.63 86.93) rotate(-90)"/>
      <rect class="cls-26" x="52.89" y="14.29" width="3.62" height=".57" transform="translate(40.13 69.28) rotate(-90)"/>
      <rect class="cls-26" x="70.06" y="14.29" width="3.62" height=".57" transform="translate(57.29 86.44) rotate(-90)"/>
      <rect class="cls-26" x="49.11" y="30.99" width="5.44" height="3.43" transform="translate(19.12 84.54) rotate(-90)"/>
      <rect class="cls-26" x="51.54" y="27.97" width=".6" height="3.43" transform="translate(22.16 81.52) rotate(-90)"/>
      <rect class="cls-26" x="49.12" y="18.91" width="5.44" height="3.43" transform="translate(31.22 72.46) rotate(-90)"/>
      <rect class="cls-26" x="51.54" y="21.93" width=".6" height="3.43" transform="translate(28.19 75.49) rotate(-90)"/>
      <rect class="cls-26" x="55.75" y="24.09" width="3.62" height="5.15" transform="translate(30.89 84.22) rotate(-90)"/>
      <rect class="cls-26" x="52.89" y="26.38" width="3.62" height=".57" transform="translate(28.03 81.36) rotate(-90)"/>
      <rect class="cls-26" x="58.61" y="26.38" width="3.62" height=".57" transform="translate(33.76 87.09) rotate(-90)"/>
      <rect class="cls-26" x="51.53" y="34.01" width=".6" height="3.43" transform="translate(16.1 87.56) rotate(-90)"/>
      <rect class="cls-26" x="51.53" y="15.88" width=".6" height="3.43" transform="translate(34.23 69.43) rotate(-90)"/>
      <polygon class="cls-26" points="65 36.03 65 36.93 65.86 36.93 65.86 40.56 65 40.56 61.57 40.56 60.71 40.56 60.71 36.93 61.57 36.93 61.57 36.03 65 36.03"/>
      <rect class="cls-26" x="62.99" y="34.01" width=".6" height="3.43" transform="translate(27.56 99.02) rotate(-90)"/>
      <polygon class="cls-26" points="54.41 28.48 53.56 28.48 53.56 29.39 50.12 29.39 50.12 28.48 50.12 24.85 50.12 23.94 53.56 23.94 53.56 24.85 54.41 24.85 54.41 28.48"/>
      <polygon class="cls-26" points="72.15 24.85 73.02 24.85 73.02 23.94 76.45 23.94 76.45 24.85 76.45 28.48 76.45 29.39 73.02 29.39 73.02 28.48 72.15 28.48 72.15 24.85"/>
      <polygon class="cls-26" points="61.57 17.3 61.57 16.4 60.71 16.4 60.71 12.77 61.57 12.77 65 12.77 65.86 12.77 65.86 16.4 65 16.4 65 17.3 61.57 17.3"/>
      <polygon class="cls-26" points="65 23.94 65 24.85 65.86 24.85 65.86 28.48 65 28.48 65 29.39 61.57 29.39 61.57 28.48 60.71 28.48 60.71 24.85 61.57 24.85 61.57 23.94 65 23.94"/>
      <polygon class="cls-26" points="76.45 36.93 76.45 38 79.49 41.2 77.06 43.76 74.02 40.56 73.02 40.56 72.15 40.56 72.15 36.93 73.02 36.93 73.02 36.03 76.45 36.03 76.45 36.93"/>
      <polygon class="cls-26" points="49.51 9.56 52.55 12.77 53.56 12.77 54.41 12.77 54.41 16.4 53.56 16.4 53.56 17.3 50.12 17.3 50.12 16.4 50.12 15.33 47.09 12.13 49.51 9.56"/>
      <polygon class="cls-26" points="53.56 36.93 54.41 36.93 54.41 40.56 53.56 40.56 52.55 40.56 49.51 43.76 47.09 41.2 50.12 38 50.12 36.93 50.12 36.03 53.56 36.03 53.56 36.93"/>
      <polygon class="cls-26" points="77.06 9.56 79.49 12.13 76.45 15.33 76.45 16.4 76.45 17.3 73.02 17.3 73.02 16.4 72.15 16.4 72.15 12.77 73.02 12.77 74.02 12.77 77.06 9.56"/>
      <ellipse class="cls-12" cx="77.61" cy="41.76" rx=".43" ry=".46"/>
      <ellipse class="cls-12" cx="48.99" cy="11.57" rx=".43" ry=".46"/>
      <ellipse class="cls-12" cx="49.02" cy="41.76" rx=".43" ry=".46"/>
      <ellipse class="cls-12" cx="77.58" cy="11.57" rx=".43" ry=".46"/>
      <g>
        <g>
          <line class="cls-10" x1="48.58" y1="11.05" x2="49.09" y2="11.6"/>
          <line class="cls-1" x1="49.53" y1="12.09" x2="51.11" y2="13.78"/>
          <polyline class="cls-10" points="51.33 14.03 51.84 14.58 52.59 14.58"/>
          <line class="cls-2" x1="53.07" y1="14.58" x2="62.36" y2="14.58"/>
          <polyline class="cls-10" points="62.59 14.58 63.34 14.58 63.34 15.33"/>
          <line class="cls-11" x1="63.34" y1="15.83" x2="63.29" y2="25.66"/>
          <polyline class="cls-10" points="63.29 25.91 63.29 26.66 62.54 26.66"/>
          <line class="cls-8" x1="62.07" y1="26.66" x2="58.54" y2="26.66"/>
          <line class="cls-10" x1="58.31" y1="26.66" x2="57.56" y2="26.66"/>
        </g>
        <g>
          <line class="cls-10" x1="69.41" y1="26.66" x2="68.66" y2="26.66"/>
          <line class="cls-4" x1="68.15" y1="26.66" x2="64.29" y2="26.66"/>
          <line class="cls-10" x1="64.04" y1="26.66" x2="63.29" y2="26.66"/>
        </g>
      </g>
      <g>
        <ellipse class="cls-15" cx="67.72" cy="25.69" rx=".11" ry=".23"/>
        <ellipse class="cls-15" cx="67.5" cy="27.17" rx=".23" ry=".11" transform="translate(25.03 86.25) rotate(-76.22)"/>
        <path class="cls-13" d="M69.35,27.7c-.18-.05-.36-.07-.52-.13-.22-.08-.43-.18-.65-.27-.04-.02-.09-.03-.14-.04-.08-.02-.16-.02-.22-.07-.37-.25-.74-.51-1.1-.78-.07-.05-.11-.18-.11-.27,0-.05.13-.11.22-.13.41-.06.82-.1,1.23-.16.32-.05.65-.15.97-.19.36-.05.73-.11,1.09-.08.53.03,1,.27,1.33.74.15.21.32.27.56.16.22-.11.47-.17.7-.25.48-.19.96-.17,1.45,0,.06.02.13.05.19.07.19.05.3-.06.26-.27-.06-.25-.23-.35-.44-.43-.08-.03-.16-.07-.23-.13.2-.12.37-.03.53.06.23.13.39.33.38.64,0,.21-.13.35-.33.34-.23-.01-.45-.06-.68-.09-.77-.09-1.47.12-2.06.65-.45.4-.96.66-1.51.86-.2.07-.42.1-.63.13-.15.02-.32-.19-.26-.35h0Z"/>
        <text class="cls-23" transform="translate(69.15 27.43) scale(1.03 1)"><tspan x="0" y="0">S</tspan></text>
        <ellipse class="cls-15" cx="58.86" cy="25.54" rx=".11" ry=".23"/>
        <ellipse class="cls-15" cx="59.08" cy="27.02" rx=".11" ry=".23" transform="translate(-4.74 14.85) rotate(-13.78)"/>
        <path class="cls-13" d="M57.22,27.56c.18-.05.36-.07.52-.13.22-.08.43-.18.65-.27.04-.02.09-.03.14-.04.08-.02.16-.02.22-.07.37-.25.74-.51,1.1-.78.07-.05.11-.18.11-.27,0-.05-.13-.11-.22-.13-.41-.06-.82-.1-1.23-.16-.32-.05-.65-.15-.97-.19-.36-.05-.73-.11-1.09-.08-.53.03-1,.27-1.33.74-.15.21-.32.27-.56.16-.22-.11-.47-.17-.7-.25-.48-.19-.96-.17-1.45,0-.06.02-.13.05-.19.07-.19.05-.3-.06-.26-.27.06-.25.23-.35.44-.43.08-.03.16-.07.23-.13-.2-.12-.37-.03-.53.06-.23.13-.39.33-.38.64,0,.21.13.35.33.34.23-.01.45-.06.68-.09.77-.09,1.47.12,2.06.65.45.4.96.66,1.51.86.2.07.42.1.63.13.15.02.32-.19.26-.35h0Z"/>
        <text class="cls-23" transform="translate(56.23 27.28) scale(1.03 1)"><tspan x="0" y="0">S</tspan></text>
      </g>
    </g>
    <g>
      <polygon class="cls-25" points="48.36 8.35 48.95 9.6 50.27 9.81 49.32 10.78 49.54 12.17 48.36 11.51 47.18 12.17 47.41 10.78 46.46 9.81 47.78 9.6 48.36 8.35"/>
      <text class="cls-22" transform="translate(47.58 11.33)"><tspan x="0" y="0">G</tspan></text>
    </g>
  </g>
  <g>
    <g>
      <polygon class="cls-17" points="18.16 10.89 24.54 10.89 25.43 8.67 17.27 8.67 18.16 10.89"/>
      <polygon class="cls-16" points="21.35 9.09 18.81 10.48 23.89 10.48 21.35 9.09"/>
    </g>
    <g>
      <rect class="cls-24" x="21.88" y="38.39" width="4.53" height=".57" transform="translate(-14.53 62.83) rotate(-90)"/>
      <rect class="cls-24" x="16.15" y="38.4" width="4.53" height=".57" transform="translate(-20.26 57.1) rotate(-90)"/>
      <rect class="cls-24" x="20.98" y="27.47" width=".6" height="4.29" transform="translate(-8.33 50.9) rotate(-90)"/>
      <rect class="cls-24" x="32.43" y="21.43" width=".6" height="4.29" transform="translate(9.15 56.31) rotate(-90)"/>
      <rect class="cls-24" x="32.43" y="27.47" width=".6" height="4.29" transform="translate(3.12 62.35) rotate(-90)"/>
      <rect class="cls-24" x="27.6" y="26.31" width="4.53" height=".57" transform="translate(3.27 56.47) rotate(-90)"/>
      <rect class="cls-24" x="21.88" y="26.31" width="4.53" height=".57" transform="translate(-2.45 50.74) rotate(-90)"/>
      <rect class="cls-24" x="16.15" y="14.23" width="4.53" height=".57" transform="translate(3.91 32.94) rotate(-90)"/>
      <rect class="cls-24" x="21.88" y="14.22" width="4.53" height=".57" transform="translate(9.64 38.66) rotate(-90)"/>
      <rect class="cls-24" x="20.99" y="15.39" width=".6" height="4.29" transform="translate(3.76 38.82) rotate(-90)"/>
      <rect class="cls-24" x="20.98" y="21.43" width=".6" height="4.29" transform="translate(-2.29 44.86) rotate(-90)"/>
      <rect class="cls-24" x="9.54" y="27.47" width=".6" height="4.29" transform="translate(-19.77 39.46) rotate(-90)"/>
      <rect class="cls-24" x="9.54" y="21.43" width=".6" height="4.29" transform="translate(-13.74 33.42) rotate(-90)"/>
      <rect class="cls-24" x="10.43" y="26.31" width="4.53" height=".57" transform="translate(-13.9 39.3) rotate(-90)"/>
      <rect class="cls-24" x="16.16" y="26.31" width="4.53" height=".57" transform="translate(-8.17 45.02) rotate(-90)"/>
      <rect class="cls-24" x="20.98" y="33.51" width=".6" height="4.29" transform="translate(-14.38 56.94) rotate(-90)"/>
      <rect class="cls-26" x="25.2" y="36.11" width="3.62" height="5.15" transform="translate(-11.67 65.69) rotate(-90)"/>
      <rect class="cls-26" x="22.34" y="38.4" width="3.62" height=".57" transform="translate(-14.53 62.83) rotate(-90)"/>
      <rect class="cls-26" x="13.76" y="36.1" width="3.62" height="5.15" transform="translate(-23.11 54.24) rotate(-90)"/>
      <rect class="cls-26" x="16.61" y="38.39" width="3.62" height=".57" transform="translate(-20.26 57.1) rotate(-90)"/>
      <rect class="cls-26" x="18.57" y="30.92" width="5.44" height="3.43" transform="translate(-11.35 53.93) rotate(-90)"/>
      <rect class="cls-26" x="20.98" y="27.9" width=".6" height="3.43" transform="translate(-8.33 50.9) rotate(-90)"/>
      <rect class="cls-26" x="28.06" y="38.4" width="3.62" height=".57" transform="translate(-8.81 68.55) rotate(-90)"/>
      <rect class="cls-26" x="10.89" y="38.4" width="3.62" height=".57" transform="translate(-25.98 51.38) rotate(-90)"/>
      <rect class="cls-26" x="30.02" y="18.84" width="5.44" height="3.43" transform="translate(12.17 53.29) rotate(-90)"/>
      <rect class="cls-26" x="32.43" y="21.86" width=".6" height="3.43" transform="translate(9.15 56.31) rotate(-90)"/>
      <rect class="cls-26" x="30.01" y="30.92" width="5.44" height="3.43" transform="translate(.09 65.36) rotate(-90)"/>
      <rect class="cls-26" x="32.43" y="27.9" width=".6" height="3.43" transform="translate(3.12 62.35) rotate(-90)"/>
      <rect class="cls-26" x="25.2" y="24.02" width="3.62" height="5.15" transform="translate(.41 53.61) rotate(-90)"/>
      <rect class="cls-26" x="28.06" y="26.31" width="3.62" height=".57" transform="translate(3.27 56.47) rotate(-90)"/>
      <rect class="cls-26" x="22.34" y="26.31" width="3.62" height=".57" transform="translate(-2.45 50.74) rotate(-90)"/>
      <rect class="cls-26" x="32.43" y="15.82" width=".6" height="3.43" transform="translate(15.2 50.27) rotate(-90)"/>
      <rect class="cls-26" x="32.43" y="33.94" width=".6" height="3.43" transform="translate(-2.93 68.39) rotate(-90)"/>
      <rect class="cls-26" x="13.76" y="11.93" width="3.62" height="5.15" transform="translate(1.06 30.08) rotate(-90)"/>
      <rect class="cls-26" x="16.61" y="14.22" width="3.62" height=".57" transform="translate(3.91 32.93) rotate(-90)"/>
      <rect class="cls-26" x="25.2" y="11.94" width="3.62" height="5.15" transform="translate(12.49 41.52) rotate(-90)"/>
      <rect class="cls-26" x="22.34" y="14.23" width="3.62" height=".57" transform="translate(9.63 38.66) rotate(-90)"/>
      <rect class="cls-26" x="18.57" y="18.84" width="5.44" height="3.43" transform="translate(.73 41.84) rotate(-90)"/>
      <rect class="cls-26" x="20.98" y="15.82" width=".6" height="3.43" transform="translate(3.75 38.82) rotate(-90)"/>
      <rect class="cls-26" x="20.98" y="21.86" width=".6" height="3.43" transform="translate(-2.29 44.86) rotate(-90)"/>
      <rect class="cls-26" x="10.89" y="14.22" width="3.62" height=".57" transform="translate(-1.8 27.21) rotate(-90)"/>
      <rect class="cls-26" x="28.06" y="14.22" width="3.62" height=".57" transform="translate(15.36 44.38) rotate(-90)"/>
      <rect class="cls-26" x="7.12" y="30.92" width="5.44" height="3.43" transform="translate(-22.8 42.48) rotate(-90)"/>
      <rect class="cls-26" x="9.54" y="27.9" width=".6" height="3.43" transform="translate(-19.77 39.46) rotate(-90)"/>
      <rect class="cls-26" x="7.12" y="18.84" width="5.44" height="3.43" transform="translate(-10.71 30.39) rotate(-90)"/>
      <rect class="cls-26" x="9.54" y="21.86" width=".6" height="3.43" transform="translate(-13.74 33.42) rotate(-90)"/>
      <rect class="cls-26" x="13.75" y="24.02" width="3.62" height="5.15" transform="translate(-11.04 42.16) rotate(-90)"/>
      <rect class="cls-26" x="10.89" y="26.31" width="3.62" height=".57" transform="translate(-13.9 39.3) rotate(-90)"/>
      <rect class="cls-26" x="16.62" y="26.31" width="3.62" height=".57" transform="translate(-8.17 45.02) rotate(-90)"/>
      <rect class="cls-26" x="9.53" y="33.94" width=".6" height="3.43" transform="translate(-25.82 45.5) rotate(-90)"/>
      <rect class="cls-26" x="9.53" y="15.82" width=".6" height="3.43" transform="translate(-7.7 27.37) rotate(-90)"/>
      <polygon class="cls-26" points="23 35.96 23 36.87 23.86 36.87 23.86 40.5 23 40.5 19.57 40.5 18.71 40.5 18.71 36.87 19.57 36.87 19.57 35.96 23 35.96"/>
      <rect class="cls-26" x="20.99" y="33.94" width=".6" height="3.43" transform="translate(-14.37 56.95) rotate(-90)"/>
      <polygon class="cls-26" points="12.41 28.41 11.56 28.41 11.56 29.32 8.13 29.32 8.13 28.41 8.13 24.78 8.13 23.87 11.56 23.87 11.56 24.78 12.41 24.78 12.41 28.41"/>
      <polygon class="cls-26" points="30.16 24.78 31.02 24.78 31.02 23.87 34.45 23.87 34.45 24.78 34.45 28.41 34.45 29.32 31.02 29.32 31.02 28.41 30.16 28.41 30.16 24.78"/>
      <polygon class="cls-26" points="19.57 17.23 19.57 16.33 18.71 16.33 18.71 12.7 19.57 12.7 23 12.7 23.86 12.7 23.86 16.33 23 16.33 23 17.23 19.57 17.23"/>
      <polygon class="cls-26" points="23 23.87 23 24.78 23.86 24.78 23.86 28.41 23 28.41 23 29.32 19.57 29.32 19.57 28.41 18.71 28.41 18.71 24.78 19.57 24.78 19.57 23.87 23 23.87"/>
      <polygon class="cls-26" points="34.45 36.87 34.45 37.93 37.49 41.13 35.06 43.7 32.02 40.5 31.02 40.5 30.16 40.5 30.16 36.87 31.02 36.87 31.02 35.96 34.45 35.96 34.45 36.87"/>
      <polygon class="cls-26" points="7.52 9.5 10.55 12.7 11.56 12.7 12.41 12.7 12.41 16.33 11.56 16.33 11.56 17.23 8.13 17.23 8.13 16.33 8.13 15.26 5.09 12.06 7.52 9.5"/>
      <polygon class="cls-26" points="11.56 36.87 12.41 36.87 12.41 40.5 11.56 40.5 10.55 40.5 7.52 43.7 5.09 41.13 8.13 37.93 8.13 36.87 8.13 35.96 11.56 35.96 11.56 36.87"/>
      <polygon class="cls-26" points="35.06 9.5 37.49 12.06 34.45 15.26 34.45 16.33 34.45 17.23 31.02 17.23 31.02 16.33 30.16 16.33 30.16 12.7 31.02 12.7 32.02 12.7 35.06 9.5"/>
      <ellipse class="cls-12" cx="35.61" cy="41.69" rx=".43" ry=".46"/>
      <ellipse class="cls-12" cx="6.99" cy="11.51" rx=".43" ry=".46"/>
      <ellipse class="cls-12" cx="7.02" cy="41.69" rx=".43" ry=".46"/>
      <ellipse class="cls-12" cx="35.58" cy="11.51" rx=".43" ry=".46"/>
      <g>
        <g>
          <line class="cls-10" x1="6.58" y1="10.99" x2="7.09" y2="11.54"/>
          <line class="cls-1" x1="7.54" y1="12.02" x2="9.11" y2="13.72"/>
          <polyline class="cls-10" points="9.33 13.96 9.84 14.51 10.59 14.51"/>
          <line class="cls-2" x1="11.07" y1="14.51" x2="20.36" y2="14.51"/>
          <polyline class="cls-10" points="20.6 14.51 21.35 14.51 21.34 15.26"/>
          <line class="cls-11" x1="21.34" y1="15.76" x2="21.29" y2="25.59"/>
          <polyline class="cls-10" points="21.29 25.85 21.29 26.6 20.54 26.6"/>
          <line class="cls-8" x1="20.07" y1="26.6" x2="16.55" y2="26.6"/>
          <line class="cls-10" x1="16.31" y1="26.6" x2="15.56" y2="26.6"/>
        </g>
        <g>
          <line class="cls-10" x1="27.42" y1="26.6" x2="26.67" y2="26.6"/>
          <line class="cls-4" x1="26.15" y1="26.6" x2="22.3" y2="26.6"/>
          <line class="cls-10" x1="22.04" y1="26.6" x2="21.29" y2="26.6"/>
        </g>
      </g>
      <g>
        <ellipse class="cls-15" cx="25.72" cy="25.62" rx=".11" ry=".23"/>
        <ellipse class="cls-15" cx="25.5" cy="27.1" rx=".23" ry=".11" transform="translate(-6.89 45.41) rotate(-76.22)"/>
        <path class="cls-13" d="M27.36,27.64c-.18-.05-.36-.07-.52-.13-.22-.08-.43-.18-.65-.27-.04-.02-.09-.03-.14-.04-.08-.02-.16-.02-.22-.07-.37-.25-.74-.51-1.1-.78-.07-.05-.11-.18-.11-.27,0-.05.13-.11.22-.13.41-.06.82-.1,1.23-.16.32-.05.65-.15.97-.19.36-.05.73-.11,1.09-.08.53.03,1,.27,1.33.74.15.21.32.27.56.16.22-.11.47-.17.7-.25.48-.19.96-.17,1.45,0,.06.02.13.05.19.07.19.05.3-.06.26-.27-.06-.25-.23-.35-.44-.43-.08-.03-.16-.07-.23-.13.2-.12.37-.03.53.06.23.13.39.33.38.64,0,.21-.13.35-.33.34-.23-.01-.45-.06-.68-.09-.77-.09-1.47.12-2.06.65-.45.4-.96.66-1.51.86-.2.07-.42.1-.63.13-.15.02-.32-.19-.26-.35h0Z"/>
        <text class="cls-23" transform="translate(27.16 27.36) scale(1.03 1)"><tspan x="0" y="0">S</tspan></text>
        <ellipse class="cls-15" cx="16.86" cy="25.47" rx=".11" ry=".23"/>
        <ellipse class="cls-15" cx="17.09" cy="26.95" rx=".11" ry=".23" transform="translate(-5.93 4.85) rotate(-13.78)"/>
        <path class="cls-13" d="M15.23,27.49c.18-.05.36-.07.52-.13.22-.08.43-.18.65-.27.04-.02.09-.03.14-.04.08-.02.16-.02.22-.07.37-.25.74-.51,1.1-.78.07-.05.11-.18.11-.27,0-.05-.13-.11-.22-.13-.41-.06-.82-.1-1.23-.16-.32-.05-.65-.15-.97-.19-.36-.05-.73-.11-1.09-.08-.53.03-1,.27-1.33.74-.15.21-.32.27-.56.16-.22-.11-.47-.17-.7-.25-.48-.19-.96-.17-1.45,0-.06.02-.13.05-.19.07-.19.05-.3-.06-.26-.27.06-.25.23-.35.44-.43.08-.03.16-.07.23-.13-.2-.12-.37-.03-.53.06-.23.13-.39.33-.38.64,0,.21.13.35.33.34.23-.01.45-.06.68-.09.77-.09,1.47.12,2.06.65.45.4.96.66,1.51.86.2.07.42.1.63.13.15.02.32-.19.26-.35h0Z"/>
        <text class="cls-23" transform="translate(14.23 27.21) scale(1.03 1)"><tspan x="0" y="0">S</tspan></text>
      </g>
    </g>
    <g>
      <polygon class="cls-25" points="6.37 8.28 6.96 9.54 8.27 9.74 7.32 10.71 7.54 12.1 6.37 11.44 5.19 12.1 5.41 10.71 4.46 9.74 5.78 9.54 6.37 8.28"/>
      <text class="cls-22" transform="translate(5.58 11.26)"><tspan x="0" y="0">G</tspan></text>
    </g>
  </g>
  <g>
    <g>
      <polyline class="cls-7" points="18.07 57.91 18.16 58.14 18.41 58.14"/>
      <line class="cls-3" x1="18.95" y1="58.14" x2="24.02" y2="58.14"/>
      <polyline class="cls-7" points="24.29 58.14 24.54 58.14 24.63 57.91"/>
      <line class="cls-5" x1="24.86" y1="57.32" x2="25.22" y2="56.44"/>
      <polyline class="cls-7" points="25.34 56.15 25.43 55.92 25.18 55.92"/>
      <line class="cls-6" x1="24.67" y1="55.92" x2="17.77" y2="55.92"/>
      <polyline class="cls-7" points="17.52 55.92 17.27 55.92 17.36 56.15"/>
      <line class="cls-5" x1="17.6" y1="56.74" x2="17.95" y2="57.62"/>
    </g>
    <g>
      <rect class="cls-24" x="21.88" y="85.64" width="4.53" height=".57" transform="translate(-61.77 110.07) rotate(-90)"/>
      <rect class="cls-24" x="16.15" y="85.64" width="4.53" height=".57" transform="translate(-67.51 104.35) rotate(-90)"/>
      <rect class="cls-24" x="20.98" y="74.71" width=".6" height="4.29" transform="translate(-55.57 98.14) rotate(-90)"/>
      <rect class="cls-24" x="32.43" y="68.68" width=".6" height="4.29" transform="translate(-38.09 103.56) rotate(-90)"/>
      <rect class="cls-24" x="32.43" y="74.71" width=".6" height="4.29" transform="translate(-44.13 109.59) rotate(-90)"/>
      <rect class="cls-24" x="27.6" y="73.56" width="4.53" height=".57" transform="translate(-43.97 103.71) rotate(-90)"/>
      <rect class="cls-24" x="21.88" y="73.56" width="4.53" height=".57" transform="translate(-49.69 97.99) rotate(-90)"/>
      <rect class="cls-24" x="16.15" y="61.48" width="4.53" height=".57" transform="translate(-43.34 80.18) rotate(-90)"/>
      <rect class="cls-24" x="21.88" y="61.47" width="4.53" height=".57" transform="translate(-37.61 85.9) rotate(-90)"/>
      <rect class="cls-24" x="20.99" y="62.63" width=".6" height="4.29" transform="translate(-43.49 86.07) rotate(-90)"/>
      <rect class="cls-24" x="20.98" y="68.68" width=".6" height="4.29" transform="translate(-49.54 92.11) rotate(-90)"/>
      <rect class="cls-24" x="9.54" y="74.71" width=".6" height="4.29" transform="translate(-67.02 86.7) rotate(-90)"/>
      <rect class="cls-24" x="9.54" y="68.68" width=".6" height="4.29" transform="translate(-60.98 80.67) rotate(-90)"/>
      <rect class="cls-24" x="10.43" y="73.56" width="4.53" height=".57" transform="translate(-61.14 86.54) rotate(-90)"/>
      <rect class="cls-24" x="16.16" y="73.56" width="4.53" height=".57" transform="translate(-55.42 92.27) rotate(-90)"/>
      <rect class="cls-24" x="20.98" y="80.76" width=".6" height="4.29" transform="translate(-61.62 104.19) rotate(-90)"/>
      <rect class="cls-26" x="25.2" y="83.35" width="3.62" height="5.15" transform="translate(-58.92 112.94) rotate(-90)"/>
      <rect class="cls-26" x="22.34" y="85.64" width="3.62" height=".57" transform="translate(-61.78 110.08) rotate(-90)"/>
      <rect class="cls-26" x="13.76" y="83.35" width="3.62" height="5.15" transform="translate(-70.36 101.49) rotate(-90)"/>
      <rect class="cls-26" x="16.61" y="85.64" width="3.62" height=".57" transform="translate(-67.5 104.34) rotate(-90)"/>
      <rect class="cls-26" x="18.57" y="78.17" width="5.44" height="3.43" transform="translate(-58.6 101.18) rotate(-90)"/>
      <rect class="cls-26" x="20.98" y="75.14" width=".6" height="3.43" transform="translate(-55.57 98.14) rotate(-90)"/>
      <rect class="cls-26" x="28.06" y="85.64" width="3.62" height=".57" transform="translate(-56.06 115.8) rotate(-90)"/>
      <rect class="cls-26" x="10.89" y="85.64" width="3.62" height=".57" transform="translate(-73.23 98.63) rotate(-90)"/>
      <rect class="cls-26" x="30.02" y="66.09" width="5.44" height="3.43" transform="translate(-35.07 100.54) rotate(-90)"/>
      <rect class="cls-26" x="32.43" y="69.11" width=".6" height="3.43" transform="translate(-38.09 103.56) rotate(-90)"/>
      <rect class="cls-26" x="30.01" y="78.16" width="5.44" height="3.43" transform="translate(-47.15 112.61) rotate(-90)"/>
      <rect class="cls-26" x="32.43" y="75.14" width=".6" height="3.43" transform="translate(-44.13 109.59) rotate(-90)"/>
      <rect class="cls-26" x="25.2" y="71.27" width="3.62" height="5.15" transform="translate(-46.83 100.85) rotate(-90)"/>
      <rect class="cls-26" x="28.06" y="73.56" width="3.62" height=".57" transform="translate(-43.97 103.71) rotate(-90)"/>
      <rect class="cls-26" x="22.34" y="73.56" width="3.62" height=".57" transform="translate(-49.69 97.99) rotate(-90)"/>
      <rect class="cls-26" x="32.43" y="63.06" width=".6" height="3.43" transform="translate(-32.04 97.51) rotate(-90)"/>
      <rect class="cls-26" x="32.43" y="81.19" width=".6" height="3.43" transform="translate(-50.17 115.64) rotate(-90)"/>
      <rect class="cls-26" x="13.76" y="59.18" width="3.62" height="5.15" transform="translate(-46.19 77.32) rotate(-90)"/>
      <rect class="cls-26" x="16.61" y="61.47" width="3.62" height=".57" transform="translate(-43.33 80.18) rotate(-90)"/>
      <rect class="cls-26" x="25.2" y="59.19" width="3.62" height="5.15" transform="translate(-34.75 88.77) rotate(-90)"/>
      <rect class="cls-26" x="22.34" y="61.48" width="3.62" height=".57" transform="translate(-37.61 85.91) rotate(-90)"/>
      <rect class="cls-26" x="18.57" y="66.08" width="5.44" height="3.43" transform="translate(-46.51 89.08) rotate(-90)"/>
      <rect class="cls-26" x="20.98" y="63.06" width=".6" height="3.43" transform="translate(-43.49 86.06) rotate(-90)"/>
      <rect class="cls-26" x="20.98" y="69.11" width=".6" height="3.43" transform="translate(-49.54 92.11) rotate(-90)"/>
      <rect class="cls-26" x="10.89" y="61.47" width="3.62" height=".57" transform="translate(-49.05 74.46) rotate(-90)"/>
      <rect class="cls-26" x="28.06" y="61.47" width="3.62" height=".57" transform="translate(-31.88 91.63) rotate(-90)"/>
      <rect class="cls-26" x="7.12" y="78.17" width="5.44" height="3.43" transform="translate(-70.05 89.72) rotate(-90)"/>
      <rect class="cls-26" x="9.54" y="75.14" width=".6" height="3.43" transform="translate(-67.02 86.7) rotate(-90)"/>
      <rect class="cls-26" x="7.12" y="66.08" width="5.44" height="3.43" transform="translate(-57.96 77.64) rotate(-90)"/>
      <rect class="cls-26" x="9.54" y="69.11" width=".6" height="3.43" transform="translate(-60.98 80.67) rotate(-90)"/>
      <rect class="cls-26" x="13.75" y="71.27" width="3.62" height="5.15" transform="translate(-58.28 89.4) rotate(-90)"/>
      <rect class="cls-26" x="10.89" y="73.56" width="3.62" height=".57" transform="translate(-61.14 86.54) rotate(-90)"/>
      <rect class="cls-26" x="16.62" y="73.56" width="3.62" height=".57" transform="translate(-55.42 92.27) rotate(-90)"/>
      <rect class="cls-26" x="9.53" y="81.19" width=".6" height="3.43" transform="translate(-73.07 92.74) rotate(-90)"/>
      <rect class="cls-26" x="9.53" y="63.06" width=".6" height="3.43" transform="translate(-54.94 74.61) rotate(-90)"/>
      <polygon class="cls-26" points="23 83.21 23 84.11 23.86 84.11 23.86 87.74 23 87.74 19.57 87.74 18.71 87.74 18.71 84.11 19.57 84.11 19.57 83.21 23 83.21"/>
      <rect class="cls-26" x="20.99" y="81.19" width=".6" height="3.43" transform="translate(-61.62 104.2) rotate(-90)"/>
      <polygon class="cls-26" points="12.41 75.65 11.56 75.65 11.56 76.56 8.13 76.56 8.13 75.65 8.13 72.03 8.13 71.12 11.56 71.12 11.56 72.03 12.41 72.03 12.41 75.65"/>
      <polygon class="cls-26" points="30.16 72.03 31.02 72.03 31.02 71.12 34.45 71.12 34.45 72.03 34.45 75.65 34.45 76.56 31.02 76.56 31.02 75.65 30.16 75.65 30.16 72.03"/>
      <polygon class="cls-26" points="19.57 64.48 19.57 63.57 18.71 63.57 18.71 59.94 19.57 59.94 23 59.94 23.86 59.94 23.86 63.57 23 63.57 23 64.48 19.57 64.48"/>
      <polygon class="cls-26" points="23 71.12 23 72.03 23.86 72.03 23.86 75.65 23 75.65 23 76.56 19.57 76.56 19.57 75.65 18.71 75.65 18.71 72.03 19.57 72.03 19.57 71.12 23 71.12"/>
      <polygon class="cls-26" points="34.45 84.11 34.45 85.18 37.49 88.38 35.06 90.94 32.02 87.74 31.02 87.74 30.16 87.74 30.16 84.11 31.02 84.11 31.02 83.21 34.45 83.21 34.45 84.11"/>
      <polygon class="cls-26" points="7.52 56.74 10.55 59.94 11.56 59.94 12.41 59.94 12.41 63.57 11.56 63.57 11.56 64.48 8.13 64.48 8.13 63.57 8.13 62.51 5.09 59.31 7.52 56.74"/>
      <polygon class="cls-26" points="11.56 84.11 12.41 84.11 12.41 87.74 11.56 87.74 10.55 87.74 7.52 90.94 5.09 88.38 8.13 85.18 8.13 84.11 8.13 83.21 11.56 83.21 11.56 84.11"/>
      <polygon class="cls-26" points="35.06 56.74 37.49 59.31 34.45 62.51 34.45 63.57 34.45 64.48 31.02 64.48 31.02 63.57 30.16 63.57 30.16 59.94 31.02 59.94 32.02 59.94 35.06 56.74"/>
      <ellipse class="cls-12" cx="35.61" cy="88.93" rx=".43" ry=".46"/>
      <ellipse class="cls-12" cx="6.99" cy="58.75" rx=".43" ry=".46"/>
      <ellipse class="cls-12" cx="7.02" cy="88.93" rx=".43" ry=".46"/>
      <ellipse class="cls-12" cx="35.58" cy="58.75" rx=".43" ry=".46"/>
      <g>
        <g>
          <line class="cls-10" x1="6.58" y1="58.23" x2="7.09" y2="58.78"/>
          <line class="cls-1" x1="7.54" y1="59.27" x2="9.11" y2="60.96"/>
          <polyline class="cls-10" points="9.33 61.2 9.84 61.76 10.59 61.76"/>
          <line class="cls-2" x1="11.07" y1="61.76" x2="20.36" y2="61.76"/>
          <polyline class="cls-10" points="20.6 61.76 21.35 61.76 21.34 62.51"/>
          <line class="cls-11" x1="21.34" y1="63.01" x2="21.29" y2="72.84"/>
          <polyline class="cls-10" points="21.29 73.09 21.29 73.84 20.54 73.84"/>
          <line class="cls-8" x1="20.07" y1="73.84" x2="16.55" y2="73.84"/>
          <line class="cls-10" x1="16.31" y1="73.84" x2="15.56" y2="73.84"/>
        </g>
        <g>
          <line class="cls-10" x1="27.42" y1="73.84" x2="26.67" y2="73.84"/>
          <line class="cls-4" x1="26.15" y1="73.84" x2="22.3" y2="73.84"/>
          <line class="cls-10" x1="22.04" y1="73.84" x2="21.29" y2="73.84"/>
        </g>
      </g>
      <g>
        <ellipse class="cls-15" cx="25.72" cy="72.87" rx=".11" ry=".23"/>
        <ellipse class="cls-15" cx="25.5" cy="74.34" rx=".23" ry=".11" transform="translate(-52.78 81.4) rotate(-76.22)"/>
        <path class="cls-13" d="M27.36,74.88c-.18-.05-.36-.07-.52-.13-.22-.08-.43-.18-.65-.27-.04-.02-.09-.03-.14-.04-.08-.02-.16-.02-.22-.07-.37-.25-.74-.51-1.1-.78-.07-.05-.11-.18-.11-.27,0-.05.13-.11.22-.13.41-.06.82-.1,1.23-.16.32-.05.65-.15.97-.19.36-.05.73-.11,1.09-.08.53.03,1,.27,1.33.74.15.21.32.27.56.16.22-.11.47-.17.7-.25.48-.19.96-.17,1.45,0,.06.02.13.05.19.07.19.05.3-.06.26-.27-.06-.25-.23-.35-.44-.43-.08-.03-.16-.07-.23-.13.2-.12.37-.03.53.06.23.13.39.33.38.64,0,.21-.13.35-.33.34-.23-.01-.45-.06-.68-.09-.77-.09-1.47.12-2.06.65-.45.4-.96.66-1.51.86-.2.07-.42.1-.63.13-.15.02-.32-.19-.26-.35h0Z"/>
        <text class="cls-23" transform="translate(27.16 74.61) scale(1.03 1)"><tspan x="0" y="0">S</tspan></text>
        <ellipse class="cls-15" cx="16.86" cy="72.72" rx=".11" ry=".23"/>
        <ellipse class="cls-15" cx="17.09" cy="74.19" rx=".11" ry=".23" transform="translate(-17.18 6.21) rotate(-13.78)"/>
        <path class="cls-13" d="M15.23,74.73c.18-.05.36-.07.52-.13.22-.08.43-.18.65-.27.04-.02.09-.03.14-.04.08-.02.16-.02.22-.07.37-.25.74-.51,1.1-.78.07-.05.11-.18.11-.27,0-.05-.13-.11-.22-.13-.41-.06-.82-.1-1.23-.16-.32-.05-.65-.15-.97-.19-.36-.05-.73-.11-1.09-.08-.53.03-1,.27-1.33.74-.15.21-.32.27-.56.16-.22-.11-.47-.17-.7-.25-.48-.19-.96-.17-1.45,0-.06.02-.13.05-.19.07-.19.05-.3-.06-.26-.27.06-.25.23-.35.44-.43.08-.03.16-.07.23-.13-.2-.12-.37-.03-.53.06-.23.13-.39.33-.38.64,0,.21.13.35.33.34.23-.01.45-.06.68-.09.77-.09,1.47.12,2.06.65.45.4.96.66,1.51.86.2.07.42.1.63.13.15.02.32-.19.26-.35h0Z"/>
        <text class="cls-23" transform="translate(14.23 74.46) scale(1.03 1)"><tspan x="0" y="0">S</tspan></text>
      </g>
    </g>
    <g>
      <polygon class="cls-25" points="6.37 55.53 6.96 56.78 8.27 56.99 7.32 57.96 7.54 59.34 6.37 58.69 5.19 59.34 5.41 57.96 4.46 56.99 5.78 56.78 6.37 55.53"/>
      <text class="cls-22" transform="translate(5.58 58.51)"><tspan x="0" y="0">G</tspan></text>
    </g>
  </g>
  <g>
    <g>
      <polygon class="cls-17" points="120.98 23.44 120.98 29.81 123.21 30.71 123.21 22.55 120.98 23.44"/>
      <polygon class="cls-16" points="122.79 26.63 121.4 24.08 121.4 29.17 122.79 26.63"/>
    </g>
    <g>
      <rect class="cls-24" x="90.94" y="29.14" width="4.53" height=".57"/>
      <rect class="cls-24" x="90.93" y="23.41" width="4.53" height=".57"/>
      <rect class="cls-24" x="101.96" y="24.42" width=".6" height="4.29"/>
      <rect class="cls-24" x="108" y="35.86" width=".6" height="4.29"/>
      <rect class="cls-24" x="101.96" y="35.86" width=".6" height="4.29"/>
      <rect class="cls-24" x="103.02" y="34.86" width="4.53" height=".57"/>
      <rect class="cls-24" x="103.02" y="29.14" width="4.53" height=".57"/>
      <rect class="cls-24" x="115.1" y="23.41" width="4.53" height=".57"/>
      <rect class="cls-24" x="115.1" y="29.14" width="4.53" height=".57"/>
      <rect class="cls-24" x="114.05" y="24.42" width=".6" height="4.29"/>
      <rect class="cls-24" x="108" y="24.42" width=".6" height="4.29"/>
      <rect class="cls-24" x="101.96" y="12.97" width=".6" height="4.29"/>
      <rect class="cls-24" x="108" y="12.97" width=".6" height="4.29"/>
      <rect class="cls-24" x="103.02" y="17.69" width="4.53" height=".57"/>
      <rect class="cls-24" x="103.02" y="23.42" width="4.53" height=".57"/>
      <rect class="cls-24" x="95.92" y="24.42" width=".6" height="4.29"/>
      <rect class="cls-26" x="91.38" y="29.71" width="3.62" height="5.15"/>
      <rect class="cls-26" x="91.38" y="29.14" width="3.62" height=".57"/>
      <rect class="cls-26" x="91.39" y="18.27" width="3.62" height="5.15"/>
      <rect class="cls-26" x="91.39" y="23.41" width="3.62" height=".57"/>
      <rect class="cls-26" x="96.52" y="24.85" width="5.44" height="3.43"/>
      <rect class="cls-26" x="101.96" y="24.85" width=".6" height="3.43"/>
      <rect class="cls-26" x="91.38" y="34.86" width="3.62" height=".57"/>
      <rect class="cls-26" x="91.38" y="17.69" width="3.62" height=".57"/>
      <rect class="cls-26" x="108.6" y="36.3" width="5.44" height="3.43"/>
      <rect class="cls-26" x="108" y="36.3" width=".6" height="3.43"/>
      <rect class="cls-26" x="96.53" y="36.29" width="5.44" height="3.43"/>
      <rect class="cls-26" x="101.96" y="36.3" width=".6" height="3.43"/>
      <rect class="cls-26" x="103.47" y="29.71" width="3.62" height="5.15"/>
      <rect class="cls-26" x="103.47" y="34.86" width="3.62" height=".57"/>
      <rect class="cls-26" x="103.47" y="29.14" width="3.62" height=".57"/>
      <rect class="cls-26" x="114.05" y="36.3" width=".6" height="3.43"/>
      <rect class="cls-26" x="95.92" y="36.3" width=".6" height="3.43"/>
      <rect class="cls-26" x="115.56" y="18.27" width="3.62" height="5.15"/>
      <rect class="cls-26" x="115.56" y="23.41" width="3.62" height=".57"/>
      <rect class="cls-26" x="115.55" y="29.71" width="3.62" height="5.15"/>
      <rect class="cls-26" x="115.55" y="29.14" width="3.62" height=".57"/>
      <rect class="cls-26" x="108.61" y="24.85" width="5.44" height="3.43"/>
      <rect class="cls-26" x="114.05" y="24.85" width=".6" height="3.43"/>
      <rect class="cls-26" x="108" y="24.85" width=".6" height="3.43"/>
      <rect class="cls-26" x="115.56" y="17.7" width="3.62" height=".57"/>
      <rect class="cls-26" x="115.56" y="34.86" width="3.62" height=".57"/>
      <rect class="cls-26" x="96.52" y="13.4" width="5.44" height="3.43"/>
      <rect class="cls-26" x="101.96" y="13.4" width=".6" height="3.43"/>
      <rect class="cls-26" x="108.61" y="13.4" width="5.44" height="3.43"/>
      <rect class="cls-26" x="108" y="13.4" width=".6" height="3.43"/>
      <rect class="cls-26" x="103.47" y="18.26" width="3.62" height="5.15"/>
      <rect class="cls-26" x="103.47" y="17.69" width="3.62" height=".57"/>
      <rect class="cls-26" x="103.47" y="23.42" width="3.62" height=".57"/>
      <rect class="cls-26" x="95.92" y="13.4" width=".6" height="3.43"/>
      <rect class="cls-26" x="114.05" y="13.4" width=".6" height="3.43"/>
      <polygon class="cls-26" points="95.92 28.28 95.01 28.28 95.01 29.14 91.38 29.14 91.38 28.28 91.38 24.85 91.38 23.99 95.01 23.99 95.01 24.85 95.92 24.85 95.92 28.28"/>
      <rect class="cls-26" x="95.92" y="24.85" width=".6" height="3.43"/>
      <polygon class="cls-26" points="103.47 17.69 103.47 16.84 102.56 16.84 102.56 13.4 103.47 13.4 107.09 13.4 108.01 13.4 108.01 16.84 107.09 16.84 107.09 17.69 103.47 17.69"/>
      <polygon class="cls-26" points="107.09 35.43 107.09 36.3 108.01 36.3 108.01 39.73 107.09 39.73 103.47 39.73 102.56 39.73 102.56 36.3 103.47 36.3 103.47 35.43 107.09 35.43"/>
      <polygon class="cls-26" points="114.65 24.85 115.55 24.85 115.55 23.99 119.18 23.99 119.18 24.85 119.18 28.28 119.18 29.14 115.55 29.14 115.55 28.28 114.65 28.28 114.65 24.85"/>
      <polygon class="cls-26" points="108.01 28.28 107.09 28.28 107.09 29.14 103.47 29.14 103.47 28.28 102.56 28.28 102.56 24.85 103.47 24.85 103.47 23.99 107.09 23.99 107.09 24.85 108.01 24.85 108.01 28.28"/>
      <polygon class="cls-26" points="95.01 39.73 93.95 39.73 90.75 42.77 88.18 40.34 91.38 37.3 91.38 36.3 91.38 35.43 95.01 35.43 95.01 36.3 95.92 36.3 95.92 39.73 95.01 39.73"/>
      <polygon class="cls-26" points="122.38 12.79 119.18 15.83 119.18 16.84 119.18 17.69 115.55 17.69 115.55 16.84 114.65 16.84 114.65 13.4 115.55 13.4 116.62 13.4 119.82 10.37 122.38 12.79"/>
      <polygon class="cls-26" points="95.01 16.84 95.01 17.69 91.38 17.69 91.38 16.84 91.38 15.83 88.18 12.79 90.75 10.37 93.95 13.4 95.01 13.4 95.92 13.4 95.92 16.84 95.01 16.84"/>
      <polygon class="cls-26" points="122.38 40.34 119.82 42.77 116.62 39.73 115.55 39.73 114.65 39.73 114.65 36.3 115.55 36.3 115.55 35.43 119.18 35.43 119.18 36.3 119.18 37.3 122.38 40.34"/>
      <ellipse class="cls-12" cx="90.19" cy="40.89" rx=".46" ry=".43"/>
      <ellipse class="cls-12" cx="120.37" cy="12.27" rx=".46" ry=".43"/>
      <ellipse class="cls-12" cx="90.19" cy="12.3" rx=".46" ry=".43"/>
      <ellipse class="cls-12" cx="120.37" cy="40.86" rx=".46" ry=".43"/>
      <g>
        <g>
          <line class="cls-10" x1="120.89" y1="11.86" x2="120.34" y2="12.37"/>
          <line class="cls-1" x1="119.86" y1="12.81" x2="118.16" y2="14.39"/>
          <polyline class="cls-10" points="117.92 14.61 117.37 15.12 117.37 15.87"/>
          <line class="cls-2" x1="117.37" y1="16.35" x2="117.37" y2="25.64"/>
          <polyline class="cls-10" points="117.37 25.87 117.37 26.62 116.62 26.62"/>
          <line class="cls-11" x1="116.12" y1="26.62" x2="106.29" y2="26.57"/>
          <polyline class="cls-10" points="106.03 26.57 105.28 26.57 105.28 25.82"/>
          <line class="cls-8" x1="105.28" y1="25.35" x2="105.28" y2="21.82"/>
          <line class="cls-10" x1="105.28" y1="21.59" x2="105.28" y2="20.84"/>
        </g>
        <g>
          <line class="cls-10" x1="105.28" y1="32.69" x2="105.28" y2="31.94"/>
          <line class="cls-4" x1="105.28" y1="31.43" x2="105.28" y2="27.57"/>
          <line class="cls-10" x1="105.28" y1="27.32" x2="105.28" y2="26.57"/>
        </g>
      </g>
      <g>
        <ellipse class="cls-15" cx="106.26" cy="31" rx=".23" ry=".11"/>
        <ellipse class="cls-15" cx="104.78" cy="30.78" rx=".11" ry=".23" transform="translate(49.93 125.21) rotate(-76.22)"/>
        <path class="cls-13" d="M104.24,32.63c.05-.18.07-.36.13-.52.08-.22.18-.43.27-.65.02-.04.03-.09.04-.14.02-.08.02-.16.07-.22.25-.37.51-.74.78-1.1.05-.07.18-.11.27-.11.05,0,.11.13.13.22.06.41.1.82.16,1.23.05.32.15.65.19.97.05.36.11.73.08,1.09-.03.53-.27,1-.74,1.33-.21.15-.27.32-.16.56.11.22.17.47.25.7.19.48.17.96,0,1.45-.02.06-.05.13-.07.19-.05.19.06.3.27.26.25-.06.35-.23.43-.44.03-.08.07-.16.13-.23.12.2.03.37-.06.53-.13.23-.33.39-.64.38-.21,0-.35-.13-.34-.33.01-.23.06-.45.09-.68.09-.77-.12-1.47-.65-2.06-.4-.45-.66-.96-.86-1.51-.07-.2-.1-.42-.13-.63-.02-.15.19-.32.35-.26h0Z"/>
        <text class="cls-23" transform="translate(104.59 33.36) scale(1.03 1)"><tspan x="0" y="0">S</tspan></text>
        <ellipse class="cls-15" cx="106.41" cy="22.14" rx=".23" ry=".11"/>
        <ellipse class="cls-15" cx="104.93" cy="22.36" rx=".23" ry=".11" transform="translate(-2.31 25.64) rotate(-13.78)"/>
        <path class="cls-13" d="M104.39,20.5c.05.18.07.36.13.52.08.22.18.43.27.65.02.04.03.09.04.14.02.08.02.16.07.22.25.37.51.74.78,1.1.05.07.18.11.27.11.05,0,.11-.13.13-.22.06-.41.1-.82.16-1.23.05-.32.15-.65.19-.97.05-.36.11-.73.08-1.09-.03-.53-.27-1-.74-1.33-.21-.15-.27-.32-.16-.56.11-.22.17-.47.25-.7.19-.48.17-.96,0-1.45-.02-.06-.05-.13-.07-.19-.05-.19.06-.3.27-.26.25.06.35.23.43.44.03.08.07.16.13.23.12-.2.03-.37-.06-.53-.13-.23-.33-.39-.64-.38-.21,0-.35.13-.34.33.01.23.06.45.09.68.09.77-.12,1.47-.65,2.06-.4.45-.66.96-.86,1.51-.07.2-.1.42-.13.63-.02.15.19.32.35.26h0Z"/>
        <text class="cls-23" transform="translate(104.67 21.16) scale(1.03 1)"><tspan x="0" y="0">S</tspan></text>
      </g>
    </g>
    <g>
      <polygon class="cls-25" points="121.09 9.25 121.68 10.51 122.99 10.72 122.04 11.69 122.27 13.07 121.09 12.41 119.91 13.07 120.13 11.69 119.18 10.72 120.5 10.51 121.09 9.25"/>
      <text class="cls-22" transform="translate(120.32 12.12)"><tspan x="0" y="0">G</tspan></text>
    </g>
  </g>
  <g>
    <g>
      <polygon class="cls-17" points="47.58 76.89 47.58 70.52 45.36 69.63 45.36 77.79 47.58 76.89"/>
      <polygon class="cls-16" points="45.78 73.71 47.16 76.25 47.16 71.16 45.78 73.71"/>
    </g>
    <g>
      <rect class="cls-24" x="73.1" y="70.62" width="4.53" height=".57" transform="translate(150.73 141.82) rotate(180)"/>
      <rect class="cls-24" x="73.1" y="76.35" width="4.53" height=".57" transform="translate(150.74 153.27) rotate(180)"/>
      <rect class="cls-24" x="66" y="71.62" width=".6" height="4.29" transform="translate(132.6 147.54) rotate(180)"/>
      <rect class="cls-24" x="59.96" y="60.18" width=".6" height="4.29" transform="translate(120.53 124.65) rotate(180)"/>
      <rect class="cls-24" x="66" y="60.18" width=".6" height="4.29" transform="translate(132.6 124.65) rotate(180)"/>
      <rect class="cls-24" x="61.02" y="64.9" width="4.53" height=".57" transform="translate(126.56 130.37) rotate(180)"/>
      <rect class="cls-24" x="61.02" y="70.62" width="4.53" height=".57" transform="translate(126.56 141.82) rotate(180)"/>
      <rect class="cls-24" x="48.93" y="76.35" width="4.53" height=".57" transform="translate(102.4 153.27) rotate(180)"/>
      <rect class="cls-24" x="48.93" y="70.62" width="4.53" height=".57" transform="translate(102.39 141.82) rotate(180)"/>
      <rect class="cls-24" x="53.92" y="71.62" width=".6" height="4.29" transform="translate(108.44 147.53) rotate(180)"/>
      <rect class="cls-24" x="59.96" y="71.62" width=".6" height="4.29" transform="translate(120.53 147.54) rotate(180)"/>
      <rect class="cls-24" x="66" y="83.07" width=".6" height="4.29" transform="translate(132.6 170.43) rotate(180)"/>
      <rect class="cls-24" x="59.96" y="83.07" width=".6" height="4.29" transform="translate(120.53 170.43) rotate(180)"/>
      <rect class="cls-24" x="61.02" y="82.07" width="4.53" height=".57" transform="translate(126.56 164.71) rotate(180)"/>
      <rect class="cls-24" x="61.02" y="76.34" width="4.53" height=".57" transform="translate(126.56 153.26) rotate(180)"/>
      <rect class="cls-24" x="72.05" y="71.62" width=".6" height="4.29" transform="translate(144.69 147.54) rotate(180)"/>
      <rect class="cls-26" x="73.56" y="65.47" width="3.62" height="5.15" transform="translate(150.74 136.1) rotate(180)"/>
      <rect class="cls-26" x="73.56" y="70.62" width="3.62" height=".57" transform="translate(150.74 141.82) rotate(180)"/>
      <rect class="cls-26" x="73.55" y="76.92" width="3.62" height="5.15" transform="translate(150.73 158.98) rotate(180)"/>
      <rect class="cls-26" x="73.55" y="76.35" width="3.62" height=".57" transform="translate(150.73 153.27) rotate(180)"/>
      <rect class="cls-26" x="66.61" y="72.05" width="5.44" height="3.43" transform="translate(138.65 147.53) rotate(180)"/>
      <rect class="cls-26" x="66" y="72.06" width=".6" height="3.43" transform="translate(132.6 147.54) rotate(180)"/>
      <rect class="cls-26" x="73.56" y="64.9" width="3.62" height=".57" transform="translate(150.74 130.37) rotate(180)"/>
      <rect class="cls-26" x="73.56" y="82.07" width="3.62" height=".57" transform="translate(150.74 164.71) rotate(180)"/>
      <rect class="cls-26" x="54.53" y="60.61" width="5.44" height="3.43" transform="translate(114.49 124.65) rotate(180)"/>
      <rect class="cls-26" x="59.96" y="60.61" width=".6" height="3.43" transform="translate(120.53 124.65) rotate(180)"/>
      <rect class="cls-26" x="66.6" y="60.61" width="5.44" height="3.43" transform="translate(138.64 124.66) rotate(180)"/>
      <rect class="cls-26" x="66" y="60.61" width=".6" height="3.43" transform="translate(132.6 124.65) rotate(180)"/>
      <rect class="cls-26" x="61.47" y="65.47" width="3.62" height="5.15" transform="translate(126.56 136.1) rotate(180)"/>
      <rect class="cls-26" x="61.47" y="64.9" width="3.62" height=".57" transform="translate(126.56 130.37) rotate(180)"/>
      <rect class="cls-26" x="61.47" y="70.62" width="3.62" height=".57" transform="translate(126.56 141.82) rotate(180)"/>
      <rect class="cls-26" x="53.92" y="60.61" width=".6" height="3.43" transform="translate(108.44 124.65) rotate(180)"/>
      <rect class="cls-26" x="72.05" y="60.61" width=".6" height="3.43" transform="translate(144.69 124.65) rotate(180)"/>
      <rect class="cls-26" x="49.38" y="76.92" width="3.62" height="5.15" transform="translate(102.39 158.98) rotate(180)"/>
      <rect class="cls-26" x="49.38" y="76.35" width="3.62" height=".57" transform="translate(102.39 153.27) rotate(180)"/>
      <rect class="cls-26" x="49.39" y="65.47" width="3.62" height="5.15" transform="translate(102.4 136.1) rotate(180)"/>
      <rect class="cls-26" x="49.39" y="70.62" width="3.62" height=".57" transform="translate(102.4 141.82) rotate(180)"/>
      <rect class="cls-26" x="54.52" y="72.06" width="5.44" height="3.43" transform="translate(114.48 147.54) rotate(180)"/>
      <rect class="cls-26" x="53.92" y="72.06" width=".6" height="3.43" transform="translate(108.44 147.54) rotate(180)"/>
      <rect class="cls-26" x="59.96" y="72.06" width=".6" height="3.43" transform="translate(120.53 147.54) rotate(180)"/>
      <rect class="cls-26" x="49.38" y="82.07" width="3.62" height=".57" transform="translate(102.39 164.7) rotate(180)"/>
      <rect class="cls-26" x="49.38" y="64.9" width="3.62" height=".57" transform="translate(102.39 130.37) rotate(180)"/>
      <rect class="cls-26" x="66.61" y="83.51" width="5.44" height="3.43" transform="translate(138.65 170.44) rotate(180)"/>
      <rect class="cls-26" x="66" y="83.5" width=".6" height="3.43" transform="translate(132.6 170.43) rotate(180)"/>
      <rect class="cls-26" x="54.52" y="83.5" width="5.44" height="3.43" transform="translate(114.48 170.43) rotate(180)"/>
      <rect class="cls-26" x="59.96" y="83.5" width=".6" height="3.43" transform="translate(120.53 170.43) rotate(180)"/>
      <rect class="cls-26" x="61.47" y="76.92" width="3.62" height="5.15" transform="translate(126.56 158.99) rotate(180)"/>
      <rect class="cls-26" x="61.47" y="82.07" width="3.62" height=".57" transform="translate(126.56 164.71) rotate(180)"/>
      <rect class="cls-26" x="61.47" y="76.34" width="3.62" height=".57" transform="translate(126.56 153.26) rotate(180)"/>
      <rect class="cls-26" x="72.05" y="83.51" width=".6" height="3.43" transform="translate(144.69 170.44) rotate(180)"/>
      <rect class="cls-26" x="53.92" y="83.51" width=".6" height="3.43" transform="translate(108.44 170.44) rotate(180)"/>
      <polygon class="cls-26" points="72.65 72.06 73.55 72.06 73.55 71.19 77.18 71.19 77.18 72.06 77.18 75.49 77.18 76.34 73.55 76.34 73.55 75.49 72.65 75.49 72.65 72.06"/>
      <rect class="cls-26" x="72.05" y="72.05" width=".6" height="3.43" transform="translate(144.69 147.53) rotate(180)"/>
      <polygon class="cls-26" points="65.09 82.64 65.09 83.5 66 83.5 66 86.93 65.09 86.93 61.47 86.93 60.56 86.93 60.56 83.5 61.47 83.5 61.47 82.64 65.09 82.64"/>
      <polygon class="cls-26" points="61.47 64.9 61.47 64.04 60.56 64.04 60.56 60.61 61.47 60.61 65.09 60.61 66 60.61 66 64.04 65.09 64.04 65.09 64.9 61.47 64.9"/>
      <polygon class="cls-26" points="53.92 75.49 53.01 75.49 53.01 76.34 49.38 76.34 49.38 75.49 49.38 72.06 49.38 71.19 53.01 71.19 53.01 72.06 53.92 72.06 53.92 75.49"/>
      <polygon class="cls-26" points="60.56 72.06 61.47 72.06 61.47 71.19 65.09 71.19 65.09 72.06 66 72.06 66 75.49 65.09 75.49 65.09 76.34 61.47 76.34 61.47 75.49 60.56 75.49 60.56 72.06"/>
      <polygon class="cls-26" points="73.55 60.61 74.62 60.61 77.82 57.57 80.38 60 77.18 63.04 77.18 64.04 77.18 64.9 73.55 64.9 73.55 64.04 72.65 64.04 72.65 60.61 73.55 60.61"/>
      <polygon class="cls-26" points="46.18 87.54 49.38 84.51 49.38 83.5 49.38 82.64 53.01 82.64 53.01 83.5 53.92 83.5 53.92 86.93 53.01 86.93 51.95 86.93 48.75 89.97 46.18 87.54"/>
      <polygon class="cls-26" points="73.55 83.5 73.55 82.64 77.18 82.64 77.18 83.5 77.18 84.51 80.38 87.54 77.82 89.97 74.62 86.93 73.55 86.93 72.65 86.93 72.65 83.5 73.55 83.5"/>
      <polygon class="cls-26" points="46.18 60 48.75 57.57 51.95 60.61 53.01 60.61 53.92 60.61 53.92 64.04 53.01 64.04 53.01 64.9 49.38 64.9 49.38 64.04 49.38 63.04 46.18 60"/>
      <ellipse class="cls-12" cx="78.37" cy="59.45" rx=".46" ry=".43"/>
      <ellipse class="cls-12" cx="48.19" cy="88.07" rx=".46" ry=".43"/>
      <ellipse class="cls-12" cx="78.37" cy="88.03" rx=".46" ry=".43"/>
      <ellipse class="cls-12" cx="48.19" cy="59.48" rx=".46" ry=".43"/>
      <g>
        <g>
          <line class="cls-10" x1="47.67" y1="88.48" x2="48.22" y2="87.97"/>
          <line class="cls-1" x1="48.71" y1="87.52" x2="50.4" y2="85.95"/>
          <polyline class="cls-10" points="50.64 85.72 51.19 85.21 51.19 84.46"/>
          <line class="cls-2" x1="51.19" y1="83.99" x2="51.19" y2="74.7"/>
          <polyline class="cls-10" points="51.19 74.46 51.19 73.71 51.94 73.71"/>
          <line class="cls-11" x1="52.45" y1="73.72" x2="62.28" y2="73.76"/>
          <polyline class="cls-10" points="62.53 73.77 63.28 73.77 63.28 74.52"/>
          <line class="cls-8" x1="63.28" y1="74.99" x2="63.28" y2="78.51"/>
          <line class="cls-10" x1="63.28" y1="78.75" x2="63.28" y2="79.5"/>
        </g>
        <g>
          <line class="cls-10" x1="63.28" y1="67.64" x2="63.28" y2="68.39"/>
          <line class="cls-4" x1="63.28" y1="68.9" x2="63.28" y2="72.76"/>
          <line class="cls-10" x1="63.28" y1="73.02" x2="63.28" y2="73.77"/>
        </g>
      </g>
      <g>
        <ellipse class="cls-15" cx="62.31" cy="69.33" rx=".23" ry=".11"/>
        <ellipse class="cls-15" cx="63.78" cy="69.56" rx=".11" ry=".23" transform="translate(-18.97 114.93) rotate(-76.22)"/>
        <path class="cls-13" d="M64.32,67.7c-.05.18-.07.36-.13.52-.08.22-.18.43-.27.65-.02.04-.03.09-.04.14-.02.08-.02.16-.07.22-.25.37-.51.74-.78,1.1-.05.07-.18.11-.27.11-.05,0-.11-.13-.13-.22-.06-.41-.1-.82-.16-1.23-.05-.32-.15-.65-.19-.97-.05-.36-.11-.73-.08-1.09.03-.53.27-1,.74-1.33.21-.15.27-.32.16-.56-.11-.22-.17-.47-.25-.7-.19-.48-.17-.96,0-1.45.02-.06.05-.13.07-.19.05-.19-.06-.3-.27-.26-.25.06-.35.23-.43.44-.03.08-.07.16-.13.23-.12-.2-.03-.37.06-.53.13-.23.33-.39.64-.38.21,0,.35.13.34.33-.01.23-.06.45-.09.68-.09.77.12,1.47.65,2.06.4.45.66.96.86,1.51.07.2.1.42.13.63.02.15-.19.32-.35.26h0Z"/>
        <text class="cls-23" transform="translate(62.54 68.27) scale(1.03 1)"><tspan x="0" y="0">S</tspan></text>
        <ellipse class="cls-15" cx="62.16" cy="78.2" rx=".23" ry=".11"/>
        <ellipse class="cls-15" cx="63.63" cy="77.97" rx=".23" ry=".11" transform="translate(-16.74 17.41) rotate(-13.78)"/>
        <path class="cls-13" d="M64.17,79.83c-.05-.18-.07-.36-.13-.52-.08-.22-.18-.43-.27-.65-.02-.04-.03-.09-.04-.14-.02-.08-.02-.16-.07-.22-.25-.37-.51-.74-.78-1.1-.05-.07-.18-.11-.27-.11-.05,0-.11.13-.13.22-.06.41-.1.82-.16,1.23-.05.32-.15.65-.19.97-.05.36-.11.73-.08,1.09.03.53.27,1,.74,1.33.21.15.27.32.16.56-.11.22-.17.47-.25.7-.19.48-.17.96,0,1.45.02.06.05.13.07.19.05.19-.06.3-.27.26-.25-.06-.35-.23-.43-.44-.03-.08-.07-.16-.13-.23-.12.2-.03.37.06.53.13.23.33.39.64.38.21,0,.35-.13.34-.33-.01-.23-.06-.45-.09-.68-.09-.77.12-1.47.65-2.06.4-.45.66-.96.86-1.51.07-.2.1-.42.13-.63.02-.15-.19-.32-.35-.26h0Z"/>
        <text class="cls-23" transform="translate(62.46 80.47) scale(1.03 1)"><tspan x="0" y="0">S</tspan></text>
      </g>
    </g>
    <g>
      <polygon class="cls-25" points="47.48 86.33 48.07 87.58 49.38 87.79 48.43 88.76 48.66 90.14 47.48 89.49 46.3 90.14 46.53 88.76 45.57 87.79 46.89 87.58 47.48 86.33"/>
      <text class="cls-22" transform="translate(46.71 89.19)"><tspan x="0" y="0">G</tspan></text>
    </g>
  </g>
  <g>
    <g>
      <polygon class="cls-17" points="108.41 89.51 102.04 89.51 101.14 91.73 109.3 91.73 108.41 89.51"/>
      <polygon class="cls-16" points="105.22 91.32 107.77 89.93 102.68 89.93 105.22 91.32"/>
    </g>
    <g>
      <rect class="cls-24" x="100.16" y="61.45" width="4.53" height=".57" transform="translate(164.15 -40.69) rotate(90)"/>
      <rect class="cls-24" x="105.88" y="61.44" width="4.53" height=".57" transform="translate(169.87 -46.43) rotate(90)"/>
      <rect class="cls-24" x="104.99" y="68.65" width=".6" height="4.29" transform="translate(176.08 -34.49) rotate(90)"/>
      <rect class="cls-24" x="93.54" y="74.68" width=".6" height="4.29" transform="translate(170.67 -17.01) rotate(90)"/>
      <rect class="cls-24" x="93.54" y="68.65" width=".6" height="4.29" transform="translate(164.63 -23.04) rotate(90)"/>
      <rect class="cls-24" x="94.43" y="73.53" width="4.53" height=".57" transform="translate(170.51 -22.89) rotate(90)"/>
      <rect class="cls-24" x="100.16" y="73.53" width="4.53" height=".57" transform="translate(176.23 -28.61) rotate(90)"/>
      <rect class="cls-24" x="105.88" y="85.61" width="4.53" height=".57" transform="translate(194.04 -22.26) rotate(90)"/>
      <rect class="cls-24" x="100.16" y="85.61" width="4.53" height=".57" transform="translate(188.32 -16.52) rotate(90)"/>
      <rect class="cls-24" x="104.98" y="80.73" width=".6" height="4.29" transform="translate(188.16 -22.4) rotate(90)"/>
      <rect class="cls-24" x="104.99" y="74.68" width=".6" height="4.29" transform="translate(182.12 -28.46) rotate(90)"/>
      <rect class="cls-24" x="116.43" y="68.65" width=".6" height="4.29" transform="translate(187.52 -45.93) rotate(90)"/>
      <rect class="cls-24" x="116.43" y="74.68" width=".6" height="4.29" transform="translate(193.56 -39.9) rotate(90)"/>
      <rect class="cls-24" x="111.6" y="73.53" width="4.53" height=".57" transform="translate(187.68 -40.06) rotate(90)"/>
      <rect class="cls-24" x="105.88" y="73.53" width="4.53" height=".57" transform="translate(181.96 -34.33) rotate(90)"/>
      <rect class="cls-24" x="104.99" y="62.6" width=".6" height="4.29" transform="translate(170.03 -40.54) rotate(90)"/>
      <rect class="cls-26" x="97.75" y="59.15" width="3.62" height="5.15" transform="translate(161.29 -37.84) rotate(90)"/>
      <rect class="cls-26" x="100.61" y="61.44" width="3.62" height=".57" transform="translate(164.15 -40.7) rotate(90)"/>
      <rect class="cls-26" x="109.19" y="59.16" width="3.62" height="5.15" transform="translate(172.74 -49.27) rotate(90)"/>
      <rect class="cls-26" x="106.34" y="61.45" width="3.62" height=".57" transform="translate(169.88 -46.42) rotate(90)"/>
      <rect class="cls-26" x="102.56" y="66.05" width="5.44" height="3.43" transform="translate(173.05 -37.51) rotate(90)"/>
      <rect class="cls-26" x="104.99" y="69.08" width=".6" height="3.43" transform="translate(176.08 -34.49) rotate(90)"/>
      <rect class="cls-26" x="94.89" y="61.44" width="3.62" height=".57" transform="translate(158.43 -34.98) rotate(90)"/>
      <rect class="cls-26" x="112.06" y="61.44" width="3.62" height=".57" transform="translate(175.6 -52.15) rotate(90)"/>
      <rect class="cls-26" x="91.12" y="78.13" width="5.44" height="3.43" transform="translate(173.69 -13.99) rotate(90)"/>
      <rect class="cls-26" x="93.54" y="75.11" width=".6" height="3.43" transform="translate(170.67 -17.01) rotate(90)"/>
      <rect class="cls-26" x="91.12" y="66.06" width="5.44" height="3.43" transform="translate(161.62 -26.07) rotate(90)"/>
      <rect class="cls-26" x="93.54" y="69.08" width=".6" height="3.43" transform="translate(164.63 -23.04) rotate(90)"/>
      <rect class="cls-26" x="97.75" y="71.24" width="3.62" height="5.15" transform="translate(173.37 -25.75) rotate(90)"/>
      <rect class="cls-26" x="94.89" y="73.53" width="3.62" height=".57" transform="translate(170.51 -22.89) rotate(90)"/>
      <rect class="cls-26" x="100.61" y="73.53" width="3.62" height=".57" transform="translate(176.23 -28.61) rotate(90)"/>
      <rect class="cls-26" x="93.54" y="81.16" width=".6" height="3.43" transform="translate(176.71 -10.96) rotate(90)"/>
      <rect class="cls-26" x="93.54" y="63.03" width=".6" height="3.43" transform="translate(158.59 -29.09) rotate(90)"/>
      <rect class="cls-26" x="109.19" y="83.32" width="3.62" height="5.15" transform="translate(196.9 -25.11) rotate(90)"/>
      <rect class="cls-26" x="106.34" y="85.61" width="3.62" height=".57" transform="translate(194.05 -22.25) rotate(90)"/>
      <rect class="cls-26" x="97.75" y="83.32" width="3.62" height="5.15" transform="translate(185.45 -13.67) rotate(90)"/>
      <rect class="cls-26" x="100.61" y="85.61" width="3.62" height=".57" transform="translate(188.32 -16.53) rotate(90)"/>
      <rect class="cls-26" x="102.57" y="78.14" width="5.44" height="3.43" transform="translate(185.14 -25.43) rotate(90)"/>
      <rect class="cls-26" x="104.99" y="81.16" width=".6" height="3.43" transform="translate(188.16 -22.41) rotate(90)"/>
      <rect class="cls-26" x="104.99" y="75.11" width=".6" height="3.43" transform="translate(182.12 -28.46) rotate(90)"/>
      <rect class="cls-26" x="112.05" y="85.61" width="3.62" height=".57" transform="translate(199.76 -27.97) rotate(90)"/>
      <rect class="cls-26" x="94.89" y="85.61" width="3.62" height=".57" transform="translate(182.6 -10.8) rotate(90)"/>
      <rect class="cls-26" x="114.02" y="66.05" width="5.44" height="3.43" transform="translate(184.5 -48.97) rotate(90)"/>
      <rect class="cls-26" x="116.43" y="69.08" width=".6" height="3.43" transform="translate(187.52 -45.93) rotate(90)"/>
      <rect class="cls-26" x="114.01" y="78.14" width="5.44" height="3.43" transform="translate(196.58 -36.87) rotate(90)"/>
      <rect class="cls-26" x="116.43" y="75.11" width=".6" height="3.43" transform="translate(193.56 -39.9) rotate(90)"/>
      <rect class="cls-26" x="109.2" y="71.24" width="3.62" height="5.15" transform="translate(184.82 -37.2) rotate(90)"/>
      <rect class="cls-26" x="112.06" y="73.53" width="3.62" height=".57" transform="translate(187.68 -40.06) rotate(90)"/>
      <rect class="cls-26" x="106.33" y="73.53" width="3.62" height=".57" transform="translate(181.96 -34.33) rotate(90)"/>
      <rect class="cls-26" x="116.43" y="63.03" width=".6" height="3.43" transform="translate(181.48 -51.99) rotate(90)"/>
      <rect class="cls-26" x="116.43" y="81.16" width=".6" height="3.43" transform="translate(199.61 -33.86) rotate(90)"/>
      <polygon class="cls-26" points="103.57 64.45 103.57 63.54 102.71 63.54 102.71 59.91 103.57 59.91 107 59.91 107.86 59.91 107.86 63.54 107 63.54 107 64.45 103.57 64.45"/>
      <rect class="cls-26" x="104.98" y="63.03" width=".6" height="3.43" transform="translate(170.03 -40.53) rotate(90)"/>
      <polygon class="cls-26" points="114.16 72 115.01 72 115.01 71.09 118.44 71.09 118.44 72 118.44 75.62 118.44 76.53 115.01 76.53 115.01 75.62 114.16 75.62 114.16 72"/>
      <polygon class="cls-26" points="96.42 75.62 95.55 75.62 95.55 76.53 92.12 76.53 92.12 75.62 92.12 72 92.12 71.09 95.55 71.09 95.55 72 96.42 72 96.42 75.62"/>
      <polygon class="cls-26" points="107 83.18 107 84.08 107.86 84.08 107.86 87.71 107 87.71 103.57 87.71 102.71 87.71 102.71 84.08 103.57 84.08 103.57 83.18 107 83.18"/>
      <polygon class="cls-26" points="103.57 76.53 103.57 75.62 102.71 75.62 102.71 72 103.57 72 103.57 71.09 107 71.09 107 72 107.86 72 107.86 75.62 107 75.62 107 76.53 103.57 76.53"/>
      <polygon class="cls-26" points="92.12 63.54 92.12 62.48 89.08 59.28 91.51 56.71 94.55 59.91 95.55 59.91 96.42 59.91 96.42 63.54 95.55 63.54 95.55 64.45 92.12 64.45 92.12 63.54"/>
      <polygon class="cls-26" points="119.05 90.91 116.02 87.71 115.01 87.71 114.16 87.71 114.16 84.08 115.01 84.08 115.01 83.18 118.44 83.18 118.44 84.08 118.44 85.15 121.48 88.35 119.05 90.91"/>
      <polygon class="cls-26" points="115.01 63.54 114.16 63.54 114.16 59.91 115.01 59.91 116.02 59.91 119.05 56.71 121.48 59.28 118.44 62.48 118.44 63.54 118.44 64.45 115.01 64.45 115.01 63.54"/>
      <polygon class="cls-26" points="91.51 90.91 89.08 88.35 92.12 85.15 92.12 84.08 92.12 83.18 95.55 83.18 95.55 84.08 96.42 84.08 96.42 87.71 95.55 87.71 94.55 87.71 91.51 90.91"/>
      <ellipse class="cls-12" cx="90.96" cy="58.72" rx=".43" ry=".46"/>
      <ellipse class="cls-12" cx="119.58" cy="88.9" rx=".43" ry=".46"/>
      <ellipse class="cls-12" cx="119.55" cy="58.72" rx=".43" ry=".46"/>
      <ellipse class="cls-12" cx="90.99" cy="88.9" rx=".43" ry=".46"/>
      <g>
        <g>
          <line class="cls-10" x1="119.99" y1="89.42" x2="119.48" y2="88.87"/>
          <line class="cls-1" x1="119.03" y1="88.39" x2="117.46" y2="86.69"/>
          <polyline class="cls-10" points="117.24 86.45 116.73 85.9 115.98 85.9"/>
          <line class="cls-2" x1="115.5" y1="85.9" x2="106.21" y2="85.9"/>
          <polyline class="cls-10" points="105.98 85.9 105.23 85.9 105.23 85.15"/>
          <line class="cls-11" x1="105.23" y1="84.65" x2="105.28" y2="74.81"/>
          <polyline class="cls-10" points="105.28 74.56 105.28 73.81 106.03 73.81"/>
          <line class="cls-8" x1="106.5" y1="73.81" x2="110.03" y2="73.81"/>
          <line class="cls-10" x1="110.26" y1="73.81" x2="111.01" y2="73.81"/>
        </g>
        <g>
          <line class="cls-10" x1="99.15" y1="73.81" x2="99.9" y2="73.81"/>
          <line class="cls-4" x1="100.42" y1="73.81" x2="104.28" y2="73.81"/>
          <line class="cls-10" x1="104.53" y1="73.81" x2="105.28" y2="73.81"/>
        </g>
      </g>
      <g>
        <ellipse class="cls-15" cx="100.85" cy="74.79" rx=".11" ry=".23"/>
        <ellipse class="cls-15" cx="101.07" cy="73.31" rx=".23" ry=".11" transform="translate(5.79 154.01) rotate(-76.22)"/>
        <path class="cls-13" d="M99.22,72.77c.18.05.36.07.52.13.22.08.43.18.65.27.04.02.09.03.14.04.08.02.16.02.22.07.37.25.74.51,1.1.78.07.05.11.18.11.27,0,.05-.13.11-.22.13-.41.06-.82.1-1.23.16-.32.05-.65.15-.97.19-.36.05-.73.11-1.09.08-.53-.03-1-.27-1.33-.74-.15-.21-.32-.27-.56-.16-.22.11-.47.17-.7.25-.48.19-.96.17-1.45,0-.06-.02-.13-.05-.19-.07-.19-.05-.3.06-.26.27.06.25.23.35.44.43.08.03.16.07.23.13-.2.12-.37.03-.53-.06-.23-.13-.39-.33-.38-.64,0-.21.13-.35.33-.34.23.01.45.06.68.09.77.09,1.47-.12,2.06-.65.45-.4.96-.66,1.51-.86.2-.07.42-.1.63-.13.15-.02.32.19.26.35h0Z"/>
        <text class="cls-23" transform="translate(98.2 74.55) scale(1.03 1)"><tspan x="0" y="0">S</tspan></text>
        <ellipse class="cls-15" cx="109.71" cy="74.94" rx=".11" ry=".23"/>
        <ellipse class="cls-15" cx="109.49" cy="73.46" rx=".11" ry=".23" transform="translate(-14.35 28.2) rotate(-13.78)"/>
        <path class="cls-13" d="M111.34,72.92c-.18.05-.36.07-.52.13-.22.08-.43.18-.65.27-.04.02-.09.03-.14.04-.08.02-.16.02-.22.07-.37.25-.74.51-1.1.78-.07.05-.11.18-.11.27,0,.05.13.11.22.13.41.06.82.1,1.23.16.32.05.65.15.97.19.36.05.73.11,1.09.08.53-.03,1-.27,1.33-.74.15-.21.32-.27.56-.16.22.11.47.17.7.25.48.19.96.17,1.45,0,.06-.02.13-.05.19-.07.19-.05.3.06.26.27-.06.25-.23.35-.44.43-.08.03-.16.07-.23.13.2.12.37.03.53-.06.23-.13.39-.33.38-.64,0-.21-.13-.35-.33-.34-.23.01-.45.06-.68.09-.77.09-1.47-.12-2.06-.65-.45-.4-.96-.66-1.51-.86-.2-.07-.42-.1-.63-.13-.15-.02-.32.19-.26.35h0Z"/>
        <text class="cls-23" transform="translate(110.94 74.71) scale(1.03 1)"><tspan x="0" y="0">S</tspan></text>
      </g>
    </g>
    <g>
      <polygon class="cls-25" points="119.99 87.1 120.58 88.35 121.9 88.56 120.95 89.53 121.17 90.91 119.99 90.26 118.81 90.91 119.04 89.53 118.09 88.56 119.41 88.35 119.99 87.1"/>
      <text class="cls-22" transform="translate(119.22 89.96)"><tspan x="0" y="0">G</tspan></text>
    </g>
  </g>
</svg>